<?xml version="1.0" standalone="no"?>
<!DOCTYPE svg PUBLIC "-//W3C//DTD SVG 1.1//EN" "http://www.w3.org/Graphics/SVG/1.1/DTD/svg11.dtd" >
<svg xmlns="http://www.w3.org/2000/svg">
<metadata>
<json>
<![CDATA[
{
	"fontFamily": "icon",
	"fontURL": "https://ana.geoq.cn",
	"designer": "Vincent",
	"designerURL": "http://www.arcpai.com",
	"description": "A ICON Font Library for GeoQ Ana Product.\nFont generated by IcoMoon.",
	"copyright": "© GISUNI",
	"majorVersion": 1,
	"minorVersion": 11,
	"version": "Version 1.11",
	"fontId": "icon",
	"psName": "icon",
	"subFamily": "Regular",
	"fullName": "icon"
}
]]>
</json>
</metadata>
<defs>
<font id="icon" horiz-adv-x="1024">
<font-face units-per-em="1024" ascent="960" descent="-64" />
<missing-glyph horiz-adv-x="1024" />
<glyph unicode="&#x20;" horiz-adv-x="512" d="" />
<glyph unicode="&#xe900;" glyph-name="area" data-tags="area" d="M597.333 567.467c-4.267 0-12.8 0-17.067-4.267l-213.333-213.333c-8.533-8.533-8.533-21.333 0-29.867 4.267-4.267 8.533-4.267 17.067-4.267 4.267 0 12.8 0 17.067 4.267l213.333 213.333c8.533 8.533 8.533 21.333 0 29.867-4.267 0-8.533 4.267-17.067 4.267v0zM763.733 704v-42.667h-42.667v42.667h42.667zM302.933 704v-42.667h-42.667v42.667h42.667zM763.733 234.667v-42.667h-42.667v42.667h42.667zM302.933 234.667v-42.667h-42.667v42.667h42.667zM789.333 746.667h-85.333c-12.8 0-21.333-8.533-21.333-21.333v-21.333h-337.067v21.333c0 12.8-12.8 21.333-21.333 21.333h-85.333c-12.8 0-21.333-8.533-21.333-21.333v-85.333c0-12.8 8.533-21.333 17.067-21.333h21.333v-341.333h-21.333c-12.8 0-21.333-8.533-21.333-21.333v-85.333c0-12.8 8.533-21.333 21.333-21.333h85.333c12.8 0 21.333 8.533 21.333 21.333v21.333h337.067v-21.333c0-12.8 8.533-21.333 21.333-21.333h85.333c12.8 0 21.333 8.533 21.333 21.333v85.333c0 12.8-8.533 21.333-21.333 21.333h-21.333v341.333h21.333c12.8 0 21.333 8.533 21.333 21.333v85.333c0 12.8-8.533 21.333-17.067 21.333v0zM298.667 277.333v341.333h25.6c12.8 0 21.333 8.533 21.333 21.333v21.333h337.067v-21.333c0-12.8 8.533-21.333 21.333-21.333h21.333v-341.333h-21.333c-12.8 0-21.333-8.533-21.333-21.333v-21.333h-337.067v21.333c0 12.8-8.533 21.333-21.333 21.333h-25.6z" />
<glyph unicode="&#xe901;" glyph-name="height" data-tags="height" d="M435.2 192v512c0 21.333-17.067 42.667-42.667 42.667h-136.533c-25.6 0-42.667-17.067-42.667-42.667v-512c0-21.333 17.067-42.667 42.667-42.667h140.8c21.333 0 38.4 17.067 38.4 42.667zM256 192v512h140.8v-89.6h-72.533c-12.8 0-21.333-8.533-21.333-21.333s8.533-21.333 21.333-21.333h72.533v-59.733h-42.667c-12.8 0-21.333-8.533-21.333-21.333s8.533-21.333 21.333-21.333h42.667v-64h-102.4c-12.8 0-21.333-8.533-21.333-21.333s8.533-21.333 21.333-21.333h102.4v-64h-42.667c-12.8 0-21.333-8.533-21.333-21.333s8.533-21.333 21.333-21.333h42.667v-64h-140.8zM640 725.333c0 12.8 8.533 21.333 21.333 21.333h128c12.8 0 21.333-8.533 21.333-21.333s-8.533-21.333-21.333-21.333h-128c-12.8 0-21.333 8.533-21.333 21.333 0 0 0 0 0 0zM640 170.667c0 12.8 8.533 21.333 21.333 21.333h128c12.8 0 21.333-8.533 21.333-21.333s-8.533-21.333-21.333-21.333h-128c-12.8 0-21.333 8.533-21.333 21.333zM704 170.667v554.667c0 12.8 8.533 21.333 21.333 21.333s21.333-8.533 21.333-21.333v-554.667c0-12.8-8.533-21.333-21.333-21.333s-21.333 8.533-21.333 21.333zM797.867 298.667l-72.533-76.8-72.533 76.8v-51.2l72.533-76.8 72.533 76.8zM797.867 597.333l-72.533 76.8-72.533-76.8v51.2l72.533 76.8 72.533-76.8z" />
<glyph unicode="&#xe902;" glyph-name="length" data-tags="length" d="M768 392.533h-512c-21.333 0-42.667-17.067-42.667-42.667v-140.8c0-21.333 17.067-42.667 42.667-42.667h512c21.333 0 42.667 17.067 42.667 42.667v140.8c0 25.6-17.067 42.667-42.667 42.667zM768 213.333h-512v140.8h89.6v-72.533c0-12.8 8.533-21.333 21.333-21.333s21.333 8.533 21.333 21.333v72.533h59.733v-42.667c0-12.8 8.533-21.333 21.333-21.333s21.333 8.533 21.333 21.333v42.667h64v-102.4c0-12.8 8.533-21.333 21.333-21.333s21.333 8.533 21.333 21.333v102.4h64v-42.667c0-12.8 8.533-21.333 21.333-21.333s21.333 8.533 21.333 21.333v42.667h64v-140.8zM234.667 512c-12.8 0-21.333 8.533-21.333 21.333v128c0 12.8 8.533 21.333 21.333 21.333s21.333-8.533 21.333-21.333v-128c0-12.8-8.533-21.333-21.333-21.333 0 0 0 0 0 0zM789.333 512c-12.8 0-21.333 8.533-21.333 21.333v128c0 12.8 8.533 21.333 21.333 21.333s21.333-8.533 21.333-21.333v-128c0-12.8-8.533-21.333-21.333-21.333zM789.333 576h-554.667c-12.8 0-21.333 8.533-21.333 21.333s8.533 21.333 21.333 21.333h554.667c12.8 0 21.333-8.533 21.333-21.333s-8.533-21.333-21.333-21.333zM661.333 669.867l76.8-72.533-76.8-72.533h51.2l76.8 72.533-76.8 72.533zM362.667 669.867l-76.8-72.533 76.8-72.533h-51.2l-76.8 72.533 76.8 72.533z" />
<glyph unicode="&#xe903;" glyph-name="point" data-tags="point" d="M669.867 256c-17.067 8.533-42.667 17.067-68.267 25.6-46.933-51.2-85.333-85.333-85.333-85.333s-38.4 34.133-89.6 85.333c-64-8.533-110.933-34.133-110.933-59.733 0-17.067 17.067-29.867 42.667-42.667 34.133-21.333 93.867-34.133 166.4-34.133 102.4 0 187.733 29.867 187.733 64 0 21.333-12.8 38.4-42.667 46.933zM516.267 746.667c-106.667 0-196.267-89.6-196.267-196.267 0-153.6 196.267-324.267 196.267-324.267s196.267 174.933 196.267 324.267c0 106.667-89.6 196.267-196.267 196.267zM516.267 439.467c-59.733 0-106.667 46.933-106.667 110.933s46.933 110.933 106.667 110.933c59.733 0 106.667-46.933 106.667-110.933 0-59.733-46.933-110.933-106.667-110.933z" />
<glyph unicode="&#xe904;" glyph-name="map" data-tags="map" d="M618.667 597.333h-341.333c-25.6 0-42.667-17.067-42.667-42.667v-341.333c0-25.6 17.067-42.667 42.667-42.667h341.333c25.6 0 42.667 17.067 42.667 42.667v341.333c0 25.6-17.067 42.667-42.667 42.667zM746.667 725.333h-426.667c-25.6 0-42.667-17.067-42.667-42.667v-42.667h42.667v42.667h426.667v-426.667h-42.667v-42.667h42.667c25.6 0 42.667 17.067 42.667 42.667v426.667c0 25.6-17.067 42.667-42.667 42.667z" />
<glyph unicode="&#xe905;" glyph-name="d" data-tags="d" d="M660.907 343.467h-49.493v212.053h49.493c58.453 0 106.24-47.787 106.24-105.813 0-58.453-47.787-106.24-106.24-106.24zM660.053 227.84c123.733 0 224 100.267 224 224s-100.267 224-224 224h-165.973v-448h165.973zM256.853 227.84c67.413 0 142.080 55.467 142.080 145.067 0 108.8-96 139.52-107.947 142.933l-1.28 0.427 112.213 159.573h-273.92v-94.293h92.587l-71.68-103.68 66.987-67.413c0 0 8.96 16.213 40.533 16.213s49.067-29.44 49.067-54.187c0-25.173-19.627-50.773-48.213-50.773s-41.387 15.36-41.387 16.213-66.987-66.987-66.987-67.413 40.533-42.667 107.947-42.667z" />
<glyph unicode="&#xe906;" glyph-name="arrow_left" data-tags="arrow_left" d="M508.16 170.667l48.64 51.627-211.2 225.707 211.627 225.707-49.067 51.627-259.84-277.333 259.84-277.333zM750.933 170.667l52.053 51.627-211.627 225.707 211.627 225.707-52.053 51.627-256.427-277.333 256.427-277.333z" />
<glyph unicode="&#xe907;" glyph-name="arrow_right" data-tags="arrow_right" d="M802.987 448l-259.84 277.333-48.64-51.627 211.627-225.707-211.627-225.707 48.64-51.627 259.84 277.333zM556.8 448l-256.427 277.333-52.053-51.627 211.627-225.707-211.627-225.707 52.053-51.627 256.427 277.333z" />
<glyph unicode="&#xe908;" glyph-name="attribute" data-tags="attribute" d="M321.707 325.547v308.053c0 22.187 17.92 40.107 40.107 40.107h295.253c22.187 0 40.107-17.92 40.107-40.107v-101.973h36.267v101.973c0 42.24-34.133 76.373-76.373 76.373h-295.253c-42.24 0-76.373-34.133-76.373-76.373v-308.053c0-42.24 34.133-76.373 76.373-76.373h102.4v36.267h-102.4c-22.187 0-40.107 17.92-40.107 40.107zM641.28 577.707c0 10.24-8.107 18.347-18.347 18.347h-227.413c-10.24 0-18.347-8.107-18.347-18.347s8.107-18.347 18.347-18.347h227.413c10.24 0 18.347 8.107 18.347 18.347zM395.52 493.653c-10.24 0-18.347-8.107-18.347-18.347s8.107-18.347 18.347-18.347h138.24c10.24 0 18.347 8.107 18.347 18.347s-8.107 18.347-18.347 18.347h-138.24zM740.267 341.333c-28.587-8.96-49.067-35.413-49.067-66.56 0-2.987 0.427-5.547 0.427-8.107l-3.84-2.133c-9.813 7.68-25.173 16.64-42.667 16.64-17.067 0-32-8.533-42.24-16.64l-2.987 1.707c0.427 2.56 0.427 5.547 0.427 8.107 0 31.147-20.48 57.6-49.067 66.56 0 1.707 0 2.987 0 4.267s0 2.56 0 4.267c28.587 8.96 49.067 35.413 49.067 66.56 0 2.987-0.427 5.547-0.427 8.107l4.693 2.56c9.813-7.68 24.747-15.787 41.387-15.787s31.147 8.107 40.96 15.36l3.84-2.133c-0.427-2.987-0.427-5.547-0.427-8.107 0-31.147 20.48-57.6 49.067-66.56 0-1.707 0-2.987 0-4.267 0.853-0.853 0.853-2.56 0.853-3.84v0zM773.973 370.773c-1.28 7.253-5.973 11.947-11.52 11.947h-1.28c-18.773 0-34.133 14.933-34.133 33.707 0 5.973 2.987 12.8 2.987 12.8 2.987 6.4 0.853 14.080-5.12 18.347v0.427l-32.853 17.92h-0.427c-6.4 2.56-13.653 1.28-18.347-3.84-3.84-4.267-16.64-14.507-26.88-14.507s-23.040 10.667-26.88 14.933c-4.693 4.693-11.947 6.4-18.347 3.84h-0.427l-34.133-18.347-0.427-0.427c-5.973-4.267-8.107-11.947-5.12-18.347 0 0 2.987-6.827 2.987-12.8 0-18.347-15.36-33.707-34.133-33.707h-0.853c-5.547 0-9.813-4.693-11.52-11.947 0-0.427-2.56-14.507-2.56-25.173 0-11.093 2.56-24.747 2.56-25.173 1.28-7.253 5.973-11.947 11.093-11.947v0h1.28c18.773 0 34.133-14.933 34.133-33.707 0-5.973-2.987-12.8-2.987-12.8-2.987-6.4-0.853-14.080 5.12-18.347l0.427-0.427 32-17.92h0.427c6.4-2.56 13.653-1.28 18.773 3.84 3.84 4.267 17.067 15.787 27.307 15.787 10.667 0 23.467-11.52 27.733-15.787 3.413-3.413 7.68-5.12 12.373-5.12 2.133 0 4.267 0.427 5.973 1.28h0.427l33.28 18.347 0.427-0.427c5.973 4.267 8.107 11.947 5.12 18.347 0 0-2.987 6.827-2.987 12.8 0 18.347 15.36 33.707 34.133 33.707h1.28c5.547 0 9.813 4.693 11.52 11.947 0 0.427 2.56 14.507 2.56 25.173-0.427 11.093-2.987 25.173-2.987 25.6zM645.973 329.387c-8.96 0-16.213 7.253-16.213 16.213s7.253 16.213 16.213 16.213c8.96 0 16.213-7.253 16.213-16.213-0.427-8.96-7.253-16.213-16.213-16.213zM645.973 398.080c-29.013 0-52.48-23.467-52.48-52.48s23.467-52.48 52.48-52.48c29.013 0 52.48 23.467 52.48 52.48s-23.467 52.48-52.48 52.48z" />
<glyph unicode="&#xe909;" glyph-name="basics_geo" data-tags="basics_geo" d="M762.453 468.48l-40.533 11.093-4.267 5.12 0.853-11.52-0.853-0.853-31.573 32.853v-0.427l-5.12-1.28-0.853 1.28 1.707-6.4 12.373-8.96 0.853-6.827-2.56-4.267-1.707-1.28-2.133-0.853-11.947 18.773h-17.92l-37.12-27.733 48.64 1.707 22.187-20.053 10.667-3.84 58.453 11.947 0.853 11.52zM798.72 375.893l2.133 1.28c5.973 22.613 9.387 46.080 8.96 70.4 0 17.067-2.133 33.707-5.12 50.773l-1.28 2.987 0.427 2.133c-8.107 37.973-24.747 73.387-48.213 104.107l-1.707-0.853-9.813 9.813 3.413 1.28c-8.533 10.24-17.493 19.627-27.733 28.16l-8.107 0.427-14.507-6.4-39.253-53.333 1.707-6.827 18.347-14.080v-7.253l-52.053-38.4 0.427-5.12 4.267-6.827 1.28-6.4-22.613-8.96-1.707-11.52 1.707-14.080-34.56-67.84-1.28-29.867 25.6-14.933h42.24l19.2-5.547 36.267-122.027c50.347 35.84 86.613 87.893 102.827 147.627l-0.853 1.28zM544.427 583.253l75.947 65.707 17.92 47.787c-31.573 12.373-65.707 18.773-99.84 18.347-4.693 0-8.96-0.427-13.653-0.853l-3.413-1.707-7.253-10.24-1.28-6.827 2.56-5.12 19.627-2.56 5.547-37.547-9.813-23.040-2.133-16.64 5.973-17.493 9.813-9.813zM432.213 607.147l-2.56 3.413-2.56 0.427-8.96-11.093 1.707-1.707h11.093l3.413 2.133-2.133 6.827zM542.72 308.053l-13.653 9.813-38.4 11.52-22.613 29.44-27.733 10.667-65.28 2.133-20.053 33.707-5.12 0.427-16.213-7.68-5.973 6.4-1.28 9.387 2.133 7.68 10.24 14.080 12.373 6.827 30.293-5.547 4.267-12.8 9.387-2.133v19.627l25.6 37.12 56.32 31.147-8.107 0.853-14.507 10.667 37.12 10.667 1.28-3.413-0.427-2.987-2.133-2.987-4.267-2.987 2.987-3.84 8.96-0.427 7.253 2.56-24.747 58.027-3.413-0.427-29.44 14.080-6.827-6.4-17.067-43.947-8.533 7.68-19.627 8.96-11.947 13.653 14.507 21.333 43.947 34.133 6.4 18.347 20.053-12.8 2.987-6.827-21.333-17.493 20.907-13.227 4.693 2.56h2.133l8.96 14.080-2.133 2.133 12.373 13.653-9.387 16.213-24.32 20.907 12.8 2.133-0.853 3.413-6.827 1.707-20.48-11.52 6.4 10.667-13.653-4.267-2.133-33.28-10.667-7.253-8.107 6.827 20.053 37.547-1.707 1.707-1.707 0.853h-2.133l-2.133-1.28-32-44.373 0.853 2.56 3.413 5.973-1.707 2.987-5.12-3.413-46.080-9.387-8.107 4.693c-46.933-50.347-72.96-116.48-72.107-185.173 0-0.853 0-1.707 0-2.56v0.427l6.827-2.56 24.32-41.387 72.96-32 9.813-11.093 0.427-14.507-8.96-21.76-0.427-11.947 31.573-61.44 0.853-34.133c17.067-9.813 35.413-17.493 54.187-23.467l33.28 42.24 29.44 21.76 17.067 56.747zM277.333 424.107l-5.973 9.813c0-0.853 0-1.707 0-2.56l5.547-11.947 0.427 4.693zM351.147 634.88l13.227-7.68 19.2 8.96 14.933 16.64 0.427 14.507-13.227-2.56-1.28 0.427c-8.96-6.4-17.92-13.653-26.027-21.333l1.28-1.28-7.68-5.547-0.853-2.133zM404.48 655.36l7.253-1.28 5.12 5.973 1.28 7.253-3.413 2.56-10.24-11.093v-3.413zM418.987 685.653l1.28-1.28 5.547 0.427 5.973 2.56 3.413 3.84-1.28 1.707c-5.547-2.133-10.24-4.693-14.933-7.253zM444.587 684.8l9.813-7.68 12.8-1.707 7.68 7.68-4.693 0.853-19.627 11.093-5.547 0.427-0.427-10.667zM462.933 693.333l14.933 0.427 29.013 18.773c-9.387-1.28-18.347-2.987-27.307-4.693l-5.12-7.253-11.52-7.253zM640 613.973l-4.267 1.707-9.387-2.133-8.96 2.133-0.427-11.093 0.853-2.56 11.947-1.28 7.68 5.973 2.56 7.253zM621.653 568.747v-25.6l5.12-13.227 12.373 2.987 0.853 8.533-18.347 27.307zM839.253 448c0-165.12-133.547-298.667-298.667-298.667s-298.667 133.547-298.667 298.667 133.547 298.667 298.667 298.667 298.667-133.547 298.667-298.667zM760.32 434.347l32.427-51.2-26.027 48.213-6.4 2.987zM730.027 579.413l-2.987 1.707-13.227 0.853-5.547 4.693 6.827 24.32-32.427-52.48-8.533-6.4 15.787-5.973 40.107 33.28zM404.907 506.027l2.133 1.707 1.707 4.267-0.427-0.427 1.28 4.693-3.84 0.427-2.987-0.853-1.707-2.133-0.853-3.413 2.56-3.413 2.133-0.853zM392.533 526.507v-0.427l-16.213-7.68 20.48 4.267-4.267 3.84zM386.987 509.44l-2.987-10.24 9.387 10.667 0.853 3.413-4.267 1.707-2.987-5.547zM776.533 489.813l-1.28 4.267-25.6 16.64-5.973 0.427-5.547-5.973-2.56-7.68 2.133-4.267 38.827-3.413zM759.893 507.307l-1.28 2.133 1.28 3.84 2.987-0.427 2.987-1.707 0.427 0.427-0.853-2.56-2.56-1.28-2.987-0.427z" />
<glyph unicode="&#xe90a;" glyph-name="calculate" data-tags="calculate" d="M399.36 378.88l65.707 65.707 43.947-43.947-65.707-65.707 65.707-65.707-43.947-43.947-65.707 65.707-65.707-65.707-43.947 43.947 65.707 65.707-65.707 65.707 43.947 43.947 65.707-65.707zM709.973 210.773c-11.093 0-21.333 5.973-26.88 15.36-5.547 9.813-5.547 21.333 0 31.147s15.787 15.36 26.88 15.36c17.067 0 31.147-14.080 31.147-31.147-0.427-16.64-14.080-30.72-31.147-30.72zM709.973 397.227c-11.093 0-21.333 5.973-26.88 15.36-5.547 9.813-5.547 21.333 0 31.147s15.787 15.36 26.88 15.36c17.067 0 31.147-14.080 31.147-31.147s-14.080-30.72-31.147-30.72zM585.813 366.080h248.32v-61.867h-248.32v61.867zM585.813 676.267h248.32v-61.867h-248.32v61.867zM244.48 179.627h620.8v-61.867h-682.667v682.667h61.867v-620.8zM368.64 676.267v93.013h61.867v-93.013h93.013v-61.867h-93.013v-93.013h-61.867v93.013h-93.013v61.867h93.013z" />
<glyph unicode="&#xe90b;" glyph-name="contrast" data-tags="contrast" d="M446.293 374.613h-121.173c-8.533 0-15.36-6.827-15.36-15.36s6.827-15.36 15.36-15.36h121.173c8.533 0 15.36 6.827 15.36 15.36-0.427 8.533-7.253 15.36-15.36 15.36zM446.293 480.853h-121.173c-8.533 0-15.36-6.827-15.36-15.36s6.827-15.36 15.36-15.36h121.173c8.533 0 15.36 6.827 15.36 15.36s-7.253 15.36-15.36 15.36zM309.76 571.733c0-3.84 1.707-7.68 4.267-10.667 2.987-2.987 6.827-4.267 10.667-4.267h121.173c8.533 0 15.36 6.827 15.36 15.36s-6.827 15.36-15.36 15.36h-120.747c-3.84 0-7.68-1.707-10.667-4.267-2.987-3.84-4.693-7.68-4.693-11.52zM702.293 368.64h-121.173c-8.533 0-15.36-6.827-15.36-15.36s6.827-15.36 15.36-15.36h121.173c8.533 0 15.36 6.827 15.36 15.36s-6.827 15.36-15.36 15.36zM702.293 474.88h-121.173c-8.533 0-15.36-6.827-15.36-15.36s6.827-15.36 15.36-15.36h121.173c8.533 0 15.36 6.827 15.36 15.36s-6.827 15.36-15.36 15.36zM702.293 581.12h-121.173c-8.533 0-15.36-6.827-15.36-15.36s6.827-15.36 15.36-15.36h121.173c8.533 0 15.36 6.827 15.36 15.36s-6.827 15.36-15.36 15.36zM680.107 712.533c20.907 0 40.96-8.107 55.467-23.040 2.987-2.987 6.827-4.267 10.667-4.267s8.107 1.707 10.667 4.267c5.973 5.973 5.973 15.36 0 21.333-20.48 20.48-48.213 32-77.227 32-8.533 0-15.36-6.827-15.36-15.36s7.68-14.933 15.787-14.933zM759.040 558.933c0-8.533 6.827-15.36 15.36-15.36s15.36 6.827 15.36 15.36v74.667c0 3.84-1.707 7.68-4.267 10.667-2.987 2.987-6.827 4.267-10.667 4.267s-7.68-1.707-10.667-4.267c-2.987-2.987-4.267-6.827-4.267-10.667v-74.667zM773.973 480.853c-3.84 0-7.68-1.707-10.667-4.267-2.987-2.987-4.267-6.827-4.267-10.667v-76.8c0-8.533 6.827-15.36 15.36-15.36s15.36 6.827 15.36 15.36v76.8c-0.427 8.107-7.253 14.933-15.787 14.933zM773.973 312.32c-3.84 0-7.68-1.707-10.667-4.267s-4.267-6.827-4.267-10.667c0-20.48-8.107-40.107-22.187-54.613-2.987-2.987-4.693-6.827-4.693-10.667s1.707-8.107 4.693-10.667c2.987-2.56 6.4-4.267 10.667-4.267s8.107 1.707 11.093 4.693c19.627 20.48 30.293 47.36 30.293 75.947-0.427 7.68-6.827 14.080-14.933 14.507zM680.107 218.453h-77.227c-8.533 0-15.36-6.827-15.36-15.36s6.827-15.36 15.36-15.36h77.227c8.533 0 15.36 6.827 15.36 15.36s-6.827 15.36-15.36 15.36zM496.64 218.453h-152.747c-43.52 0-78.933 35.413-78.933 78.933v336.213c0 43.52 35.413 78.933 78.933 78.933h153.173v-494.080zM599.040 712.533c8.533 0 15.36 6.827 15.36 15.36s-6.827 15.36-15.36 15.36h-255.147c-60.16 0-109.227-49.067-109.227-109.227v-336.64c0-60.16 49.067-109.227 109.227-109.227h168.107c8.533 0 15.36 6.827 15.36 15.36v509.013h71.68z" />
<glyph unicode="&#xe90c;" glyph-name="ecomoic_data1" data-tags="ecomoic_data" d="M693.333 661.333c3.413 0 6.4-1.28 8.96-3.84s3.84-5.973 3.84-9.387v-57.6h-37.547v30.293h-301.227v-30.293h-37.973v57.173c0 3.413 1.28 6.827 3.84 9.387 2.56 2.987 5.547 4.267 8.96 4.267h351.147zM392.533 512.427h-75.52v-26.88h75.52v26.88zM693.333 539.307h-25.173v-26.88h-25.173v-26.88h25.173v-26.88h25.173v26.88h25.173v26.88h-25.173v26.88zM718.507 552.96c3.413 0 6.4-1.28 8.96-3.84s3.84-5.973 3.84-9.387v-81.067c0-3.413-1.28-6.827-3.84-9.387s-5.547-3.84-8.96-3.84h-75.093c-6.827 0-12.373 5.973-12.373 13.653v81.067c0 3.413 1.28 6.827 3.84 9.387s5.547 3.84 8.96 3.84h74.667zM392.533 552.96c3.413 0 6.4-1.28 8.96-3.84s3.84-5.973 3.84-9.387v-81.067c0-7.68-5.547-13.653-12.373-13.653h-75.947c-3.413 0-6.4 1.28-8.96 3.84s-3.84 5.973-3.84 9.387v81.067c0 3.413 1.28 6.827 3.84 9.387s5.547 3.84 8.96 3.84h75.52zM593.067 471.893v-162.56h-37.547v162.56h37.547zM530.347 404.053v-94.72h-37.547v94.72h37.547zM467.627 377.173v-67.84h-37.547v67.84h37.547zM367.36 400.213v-124.587h301.227v124.587h37.547v-165.547h-376.747v165.547h37.973z" />
<glyph unicode="&#xe90d;" glyph-name="export" data-tags="export" d="M711.68 462.080v-133.12h-405.333v133.12c-0.427 14.507-11.947 26.027-26.453 26.027s-26.027-11.52-26.453-26.027v-154.88c0-17.92 14.080-32 31.573-32h448.427c17.493 0 31.573 14.507 31.573 32v154.88c-0.427 14.507-11.947 26.027-26.453 26.027-14.507 0.427-26.453-11.52-26.88-26.027zM489.813 694.187l-100.693-95.147c-10.667-9.813-10.667-26.027 0-35.84s27.733-9.813 38.4 0l52.907 49.493v-182.613c0-14.933 13.227-27.307 29.013-27.307 16.213 0 29.013 12.373 29.013 27.307v182.613l52.907-49.493c10.667-9.813 27.733-9.813 38.4 0s10.667 26.027 0 35.84l-101.12 95.147c-11.093 9.813-28.16 9.813-38.827 0z" />
<glyph unicode="&#xe90e;" glyph-name="flood_level" data-tags="flood_level" d="M277.76 628.053h128v-42.667h-128v-42.667h85.333v-42.667h-85.333v-256h-42.667v469.333h213.333v-42.667h-170.667v-42.667zM717.653 489.813c18.347 35.84 59.733 53.333 98.133 41.387s62.72-49.92 57.6-89.6h-415.147c-11.52 31.573 2.987 66.56 33.707 80.213s66.56 1.707 82.347-27.733c14.933 26.027 43.093 41.387 72.96 40.533s57.173-17.92 70.4-44.8zM641.28 386.133c18.347 35.84 59.733 53.333 98.133 41.387s62.72-49.92 57.6-89.6h-415.147c-11.52 31.573 2.987 66.56 33.707 80.213s66.56 1.707 82.347-27.733c14.933 26.027 43.093 41.387 72.96 40.533s56.747-17.92 70.4-44.8zM570.88 282.453c18.347 35.84 59.733 53.333 98.133 41.387s62.72-49.92 57.6-89.6h-415.147c-11.52 31.573 2.987 66.56 33.707 80.213 30.293 13.653 66.56 1.707 82.347-27.733 14.933 26.027 43.093 41.387 72.96 40.533s56.747-17.92 70.4-44.8z" />
<glyph unicode="&#xe90f;" glyph-name="fly" data-tags="fly" d="M363.947 314.88c7.253-4.267 16.64-4.267 24.32-0.427l377.173 197.547c11.093 5.973 14.933 19.2 8.96 29.44v0c-6.4 10.667-20.907 14.080-32.427 8.107l-112.64-60.16-22.613-0.427-201.387 95.573-37.12-19.627 140.8-105.387-2.987-35.84-122.453-65.28-19.2-1.707-66.987 20.053-21.333-11.52 87.893-50.347zM716.8 588.373c33.707 18.347 76.8 7.253 96-24.32l0.427-0.427c19.2-31.573 7.253-71.68-26.453-89.6l-373.76-199.253c-22.613-11.947-49.92-11.52-72.107 1.28l-88.747 52.053c-6.4 3.84-11.52 8.96-15.36 14.933-12.8 20.48-5.12 46.933 16.64 58.453l23.040 12.373c11.52 6.4 25.173 7.68 37.973 3.84l56.32-17.067 83.2 45.227-126.72 96c-2.987 2.56-5.973 5.547-8.107 8.96-9.813 15.787-3.84 36.267 12.8 45.227l51.627 27.733c14.080 7.68 30.72 7.68 45.227 0.853l187.307-91.307 100.693 55.040z" />
<glyph unicode="&#xe910;" glyph-name="home" data-tags="home" d="M605.44 316.16c0-9.387-7.68-16.64-16.64-16.64h-154.88c-9.387 0-16.64 7.68-16.64 16.64s7.68 16.64 16.64 16.64h154.88c9.387 0 16.64-7.253 16.64-16.64zM770.987 551.253l-230.4 165.12c-16.64 11.947-40.107 11.947-56.747 0l-230.827-165.12c-11.093-8.107-17.92-20.48-17.92-33.28v-304.213c0-23.467 20.48-42.24 46.080-42.24h461.227c25.6 0 46.080 19.2 46.080 42.24v304.213c0 12.8-6.4 25.173-17.493 33.28z" />
<glyph unicode="&#xe911;" glyph-name="layer" data-tags="layer" d="M284.587 568.747l227.413-128.853 227.413 128.853-227.413 128.853-227.413-128.853zM512 394.24l-303.36 174.507 303.36 174.507 303.36-174.507-303.36-174.507zM777.387 492.8l-37.973-22.613-227.413-129.28-265.387 151.893-37.973-22.613 303.36-174.507 303.36 174.507zM777.387 386.56l-37.973-22.613-227.413-128.853v-3.84l-265.387 151.467-37.973-18.773 303.36-174.507 303.36 174.507z" />
<glyph unicode="&#xe912;" glyph-name="library" data-tags="library" d="M568.747 538.88h-68.267c-12.373 0-22.613-10.24-22.613-22.613s10.24-22.613 22.613-22.613h68.267c12.373 0 22.613 10.24 22.613 22.613s-10.24 22.613-22.613 22.613zM500.48 584.533h68.267c12.373 0 22.613 10.24 22.613 22.613s-10.24 22.613-22.613 22.613h-68.267c-12.373 0-22.613-10.24-22.613-22.613s9.813-22.613 22.613-22.613zM443.733 675.413h182.187v-273.067h-182.187v273.067zM375.040 357.12h318.72c12.373 0 22.613 10.24 22.613 22.613s-10.24 22.613-22.613 22.613h-22.187v296.107c0 12.373-10.24 22.613-22.613 22.613-0.853 0-1.28-0.427-2.133-0.427s-1.707 0.427-2.56 0.427h-218.88c-0.853 0-1.707-0.427-2.56-0.427s-1.28 0.427-2.133 0.427c-12.373 0-22.613-10.24-22.613-22.613v-295.68h-23.040c-12.373 0-22.613-10.24-22.613-22.613-0.427-12.8 9.813-23.040 22.613-23.040zM761.6 266.24v-45.653h-454.827v45.653h454.827zM784.213 544.853h-45.653c-12.373 0-22.613-10.24-22.613-22.613s10.24-22.613 22.613-22.613h22.613v-187.307h-454.4v186.88h22.613c12.373 0 22.613 10.24 22.613 22.613s-10.24 22.613-22.613 22.613h-45.653c-12.373 0-22.613-10.24-22.613-22.613v-318.72c0-0.853 0.427-1.707 0.427-2.987 0-0.853-0.427-1.707-0.427-2.987 0-12.373 10.24-22.613 22.613-22.613h500.48c12.373 0 22.613 10.24 22.613 22.613 0 0.853-0.427 1.707-0.427 2.987 0 0.853 0.427 1.707 0.427 2.987v318.72c0.427 12.8-9.813 23.040-22.613 23.040z" />
<glyph unicode="&#xe913;" glyph-name="loc" data-tags="loc" d="M512 365.227c23.040 0 42.667 8.107 58.88 24.32s23.893 35.84 23.893 58.453c0 23.040-8.107 42.667-23.893 58.88s-35.413 23.893-58.88 23.893c-22.613 0-42.24-8.107-58.453-23.893s-24.32-35.413-24.32-58.88c0-22.613 8.107-42.24 24.32-58.453s35.84-24.32 58.453-24.32zM483.413 253.44c-21.333 2.987-40.96 9.387-59.307 19.2-18.773 9.387-35.413 21.333-49.493 35.84-14.507 14.507-26.453 31.147-35.84 49.493-9.813 18.773-16.213 38.4-19.2 59.307 8.107 0 14.933 2.987 20.48 8.533 5.973 5.973 8.533 12.8 8.533 20.48 0 8.533-2.987 15.36-8.533 21.333-5.973 5.973-12.8 8.533-20.48 8.533 2.987 20.907 9.387 40.533 18.773 59.307 9.387 19.2 21.333 35.84 35.84 49.92s31.147 26.027 49.92 35.84c18.347 9.387 37.973 15.36 59.307 18.773 0-8.107 2.987-14.933 8.533-20.48 5.973-5.973 12.8-8.533 20.48-8.533 8.533 0 15.36 2.987 20.907 8.533 5.547 5.973 8.533 12.8 8.533 21.333 21.333-2.987 41.387-9.387 60.16-19.2 18.773-9.387 35.413-21.333 49.493-35.84 14.507-14.507 26.453-31.147 35.84-49.493 9.813-18.773 16.64-38.4 20.053-59.307-8.533 0-15.36-2.987-21.333-8.533-5.973-5.973-8.533-12.8-8.533-21.333 0-8.107 2.987-14.933 8.533-20.48 5.973-5.973 12.8-8.533 20.48-8.533-2.987-20.907-9.387-40.533-19.2-59.307-9.387-18.773-21.333-34.987-35.84-49.493-14.507-14.080-31.147-26.027-49.493-35.84-18.773-9.387-38.827-15.36-60.16-17.92 0 8.107-2.987 14.933-8.533 20.48-5.547 5.973-12.373 8.533-20.907 8.533-8.107 0-14.933-2.987-20.48-8.96-5.547-6.827-8.533-13.653-8.533-22.187zM512 150.187c7.68 0 14.080 2.56 19.627 8.107s8.533 11.947 8.533 20.053v29.44c28.16 3.413 54.187 11.52 78.507 23.467s46.080 27.307 64.853 46.507c18.773 18.773 34.133 40.533 46.507 64.853 11.947 23.893 19.627 49.92 22.613 78.080h29.867c7.68 0 14.080 2.987 19.627 8.533 5.547 4.693 8.533 11.093 8.533 18.773s-2.987 14.080-8.533 19.627c-5.547 5.547-11.947 8.533-19.627 8.533h-29.867c-2.987 28.16-10.667 54.187-22.613 78.507-12.373 24.32-28.16 46.080-46.507 64.853-18.773 18.773-40.107 34.133-64.853 46.080-24.32 12.373-50.773 20.053-78.507 23.467v29.013c0 8.107-2.987 14.507-8.533 20.053s-11.947 7.68-19.627 7.68-14.080-2.56-19.627-8.107-8.533-11.947-8.533-20.053v-29.44c-28.16-2.987-54.187-11.093-78.507-23.467-24.32-11.52-46.080-26.88-64.853-45.227-18.347-18.773-34.133-40.533-46.507-64.853-11.947-24.32-19.627-50.773-22.613-78.507h-29.867c-7.68 0-14.080-2.987-19.627-8.533s-8.533-11.947-8.533-19.627c0-7.68 2.987-14.080 8.533-19.627s11.947-8.533 19.627-8.533h29.867c2.987-28.16 10.667-54.187 22.613-78.080 12.373-24.32 28.16-46.080 46.507-64.853 18.773-18.773 40.107-34.133 64.853-46.507s50.773-19.627 78.507-23.467v-29.44c0-8.107 2.987-14.507 8.533-20.053s11.947-7.253 19.627-7.253z" />
<glyph unicode="&#xe914;" glyph-name="logout" data-tags="logout" d="M753.493 689.493l-60.16-60.16c-48.213 47.787-113.493 74.667-181.333 74.667-141.227 0-256-114.773-256-256s114.773-256 256-256c68.693 0 133.12 27.307 180.907 74.667l60.16-60.587c-64-63.573-150.613-99.413-241.067-99.413-188.587 0-341.333 152.747-341.333 341.333s152.747 341.333 341.333 341.333c91.733 0 177.92-36.267 241.493-99.84zM725.333 405.333h-298.667v85.333h298.667l-42.667 85.333h85.333l85.333-128-85.333-128h-85.333l42.667 85.333z" />
<glyph unicode="&#xe915;" glyph-name="measure" data-tags="measure" d="M785.493 637.44l-60.587 48.213c-3.413 2.987-8.533 0.427-8.533-4.267v-96.853c0-4.267 5.12-6.827 8.533-4.267l60.587 48.213c2.56 2.987 2.56 6.827 0 8.96zM237.653 629.333l60.587-48.213c3.413-2.987 8.533-0.427 8.533 4.267v96.427c0 4.267-5.12 6.827-8.533 4.267l-60.587-48.64c-2.987-2.133-2.987-5.973 0-8.107zM278.187 317.44h466.347v123.307h-466.347v-123.307zM765.867 274.773h-509.013c-11.947 0-21.333 9.387-21.333 21.333v165.973c0 11.947 9.387 21.333 21.333 21.333h509.013c11.947 0 21.333-9.387 21.333-21.333v-165.973c0-11.947-9.387-21.333-21.333-21.333zM660.907 446.293h42.667v-94.72c0-2.987-2.56-5.12-5.12-5.12h-32c-2.987 0-5.12 2.56-5.12 5.12v94.72zM548.693 445.013h42.667v-94.72c0-2.987-2.56-5.12-5.12-5.12h-32c-2.987 0-5.12 2.56-5.12 5.12v94.72zM436.907 445.013h42.667v-94.72c0-2.987-2.56-5.12-5.12-5.12h-32c-2.987 0-5.12 2.56-5.12 5.12v94.72zM325.12 446.72h42.667v-94.72c0-2.987-2.56-5.12-5.12-5.12h-32.427c-2.987 0-5.12 2.56-5.12 5.12v94.72zM610.133 651.947h33.28v-37.547h-33.28v37.547zM552.533 651.947h33.28v-37.547h-33.28v37.547zM494.933 651.947h33.28v-37.547h-33.28v37.547zM437.333 651.947h33.28v-37.547h-33.28v37.547zM379.733 651.947h33.28v-37.547h-33.28v37.547zM663.040 651.947h68.267v-37.547h-68.267v37.547zM291.413 651.947h68.267v-37.547h-68.267v37.547z" />
<glyph unicode="&#xe916;" glyph-name="menu" data-tags="menu" d="M960 875.52c35.413 0 64-28.587 64-64s-28.587-64-64-64h-896c-35.413 0-64 28.587-64 64s28.587 64 64 64h896zM960 534.187c35.413 0 64-28.587 64-64s-28.587-64-64-64h-896c-35.413 0-64 28.587-64 64s28.587 64 64 64h896zM960 192.853c35.413 0 64-28.587 64-64s-28.587-64-64-64h-896c-35.413 0-64 28.587-64 64s28.587 64 64 64h896z" />
<glyph unicode="&#xe917;" glyph-name="minus" data-tags="minus" d="M786.773 424.107c6.827 0 12.373 2.133 17.067 6.827s6.827 10.24 6.827 17.067-2.133 12.373-6.827 17.067c-4.693 4.693-10.24 6.827-17.067 6.827h-549.547c-6.827 0-12.373-2.133-17.067-6.827s-6.827-10.24-6.827-17.067 2.133-12.373 6.827-17.067 10.24-6.827 17.067-6.827h549.547z" />
<glyph unicode="&#xe918;" glyph-name="model_choose" data-tags="model_choose" d="M502.613 423.253l170.667 85.76v42.667l-170.667-85.333v-43.093zM502.613 465.92l-170.667 85.333v-42.667l170.667-85.76v43.093zM521.387 227.413l-18.773-9.387-213.333 106.24v238.933l213.333 104.107 213.333-103.68v-97.28h42.667v128l-256.427 128-255.573-128v-298.667l256-128 61.44 31.147-42.667 28.587zM674.987 379.733c-49.493 0-87.467-37.547-87.467-87.467 0-49.493 37.973-87.467 87.467-87.467s87.467 37.547 87.467 87.467c0 49.493-37.973 87.467-87.467 87.467zM674.987 161.28c-75.093-1.28-130.987 63.573-130.987 130.987 0 77.227 62.293 130.987 130.987 130.987 80.213 0 131.413-67.84 130.987-130.987-0.427-70.827-55.467-129.28-130.987-130.987zM818.773 124.16l-80.213 80.213 24.32 24.32 80.64-80.64z" />
<glyph unicode="&#xe919;" glyph-name="plan" data-tags="plan" d="M383.147 279.893h97.707c11.093 0 20.053 8.96 20.053 20.053s-8.96 20.053-20.053 20.053h-97.707c-11.093 0-20.053-8.96-20.053-20.053s8.96-20.053 20.053-20.053zM383.147 363.947h175.36c11.093 0 20.053 8.96 20.053 20.053s-8.96 20.053-20.053 20.053h-175.36c-11.093 0-20.053-8.96-20.053-20.053s8.96-20.053 20.053-20.053zM701.867 296.96h-42.667v322.133c0 11.093-8.96 20.053-20.053 20.053h-234.24v42.667h296.96v-384.853zM619.093 214.187h-296.96v384.853h296.96v-384.853zM721.92 721.92h-337.067c-11.093 0-20.053-8.96-20.053-20.053v-62.72h-62.72c-11.093 0-20.053-8.96-20.053-20.053v-425.387c0-11.093 8.96-20.053 20.053-20.053h336.64c11.093 0 20.053 8.96 20.053 20.053v62.72h62.72c11.093 0 20.053 8.96 20.053 20.053v425.387c0.427 11.093-8.533 20.053-19.627 20.053z" />
<glyph unicode="&#xe91a;" glyph-name="plus" data-tags="plus" d="M512 149.333c7.68 0 14.080 2.56 19.2 8.107s8.107 11.947 8.107 19.2v247.467h247.467c6.827 0 12.373 2.133 17.067 6.827s6.827 10.24 6.827 17.067-2.133 12.373-6.827 17.067c-3.84 3.84-8.107 5.973-13.227 6.827l-3.84 0.427h-247.467v247.467c0 7.68-2.56 14.080-8.107 19.2s-11.52 7.68-19.2 7.68-14.080-2.56-19.2-8.107c-4.267-4.267-6.827-9.387-7.68-14.933l-0.427-4.267v-247.467h-247.467c-6.827 0-12.373-2.133-17.067-6.827s-6.827-10.24-6.827-17.067 2.133-12.373 6.827-17.067 10.24-6.827 17.067-6.827h247.467v-247.467c0-7.68 2.56-14.080 8.107-19.2s11.52-8.107 19.2-8.107z" />
<glyph unicode="&#xe91b;" glyph-name="project_scheduling" data-tags="project_scheduling" d="M776.96 401.067l60.16-60.16c11.093-11.093 11.093-29.013 0-40.107s-29.013-11.093-40.107 0l-60.16 60.16c-10.667 11.093-10.24 28.587 0.427 39.68 10.667 10.667 28.16 11.093 39.68 0.427zM637.867 226.987l60.16-60.16c10.667-11.093 10.667-29.013-0.427-39.68-11.093-11.093-28.587-11.093-39.68-0.427l-60.16 60.16c-11.093 11.093-11.093 29.013 0 40.107s29.013 11.093 40.107 0zM617.813 235.093h199.253c18.773 0 28.587-9.387 28.587-28.587 0-18.773-9.387-28.587-28.587-28.587h-199.253c-18.773 0-28.587 9.387-28.587 28.587s9.387 28.587 28.587 28.587zM617.813 349.013h199.253c18.773 0 28.587-9.387 28.587-28.587s-9.387-28.587-28.587-28.587h-199.253c-18.773 0-28.587 9.387-28.587 28.587s9.387 28.587 28.587 28.587zM292.267 578.56c0-15.787 12.8-28.587 28.587-28.587h28.587c10.24 0 19.627 5.547 24.747 14.080 5.12 8.96 5.12 19.627 0 28.587-5.547 8.96-14.933 14.080-24.747 14.080h-28.587c-15.787 0-28.587-12.8-28.587-28.16zM434.773 578.56c0-15.787 12.8-28.587 28.587-28.587h142.080c15.787 0 28.587 12.8 28.587 28.587s-12.8 28.587-28.587 28.587h-142.080c-7.68 0-14.933-2.987-20.053-8.533-5.547-5.547-8.533-12.8-8.533-20.053zM320.853 322.56h28.587c15.787 0 28.587 12.8 28.587 28.587s-12.8 28.587-28.587 28.587h-28.587c-15.787 0-28.587-12.8-28.587-28.587s12.8-28.587 28.587-28.587zM462.933 322.56h85.333c15.787 0 28.587 12.8 28.587 28.587s-12.8 28.587-28.587 28.587h-85.333c-15.787 0-28.587-12.8-28.587-28.587s12.8-28.587 28.587-28.587zM320.853 436.053h28.587c15.787 0 28.587 12.8 28.587 28.587s-12.8 28.587-28.587 28.587h-28.587c-15.787 0-28.587-12.8-28.587-28.587s12.8-28.587 28.587-28.587zM462.933 436.053h142.080c15.787 0 28.587 12.8 28.587 28.587s-12.8 28.587-28.587 28.587h-142.080c-15.787 0-28.587-12.8-28.587-28.587s12.8-28.587 28.587-28.587zM761.6 777.387c22.187 0 40.533-16.64 42.667-38.4v-274.347c0-14.933-11.947-27.307-26.88-28.16s-28.16 10.24-29.867 25.173v259.413h-512v-512h227.84c14.507 0 26.453-10.667 28.16-25.173v-3.413c0-14.507-10.667-26.453-25.173-28.16h-244.907c-22.187 0-40.533 16.64-42.667 38.4v544c0 22.187 16.64 40.533 38.4 42.667h544.427z" />
<glyph unicode="&#xe91c;" glyph-name="rainfall" data-tags="rainfall" d="M539.307 228.267c-43.093-40.96-110.507-40.96-153.173 0-39.253 36.693-49.067 95.573-23.467 142.933l99.84 187.307 99.84-187.307c25.173-47.36 15.787-106.24-23.040-142.933zM482.56 617.813c-8.107 14.933-32.427 14.933-40.107 0l-120.32-225.28c-34.987-65.707-21.76-147.2 32-197.547 30.293-28.587 69.12-42.667 107.947-42.667s77.653 14.507 107.947 42.667c53.76 50.347 66.987 131.84 32 197.547l-119.467 225.28zM758.187 630.187v45.227h-45.653v68.267h-45.653v-591.787h90.88v45.653h-45.227v113.92h45.653v45.653h-45.653v113.92h45.653v45.227h-45.653v113.92h45.653zM287.573 506.453c-17.067-17.067-43.093-17.067-60.16 0-15.787 15.787-20.053 42.24-9.813 62.72l39.68 78.507 39.68-78.507c10.667-20.48 6.827-46.933-9.387-62.72zM337.92 590.080l-60.16 118.613c-7.68 15.36-32.853 15.36-40.533 0l-59.733-118.613c-19.2-38.4-11.947-86.187 18.347-116.053 17.067-17.493 39.68-26.027 61.867-26.027s44.8 8.533 62.293 26.027c29.867 29.867 37.12 77.653 17.92 116.053z" />
<glyph unicode="&#xe91d;" glyph-name="rate" data-tags="rate" d="M542.293 576h25.6c3.413 0 6.4-1.707 8.533-4.693 1.707-2.987 2.133-6.4 0.853-9.387l-93.013-232.107c-1.707-5.973-7.68-9.813-13.653-9.813h-25.6c-3.413 0-6.4 1.707-8.533 4.693-1.707 2.987-2.133 6.4-0.853 9.387l93.013 232.107c2.133 5.973 7.68 9.813 13.653 9.813zM588.8 371.2c-8.96 0-17.493 4.693-22.187 12.8s-4.693 17.493 0 25.6c4.693 8.107 13.227 12.8 22.187 12.8 14.080 0 25.6-11.52 25.6-25.6s-11.52-25.6-25.6-25.6zM435.2 473.6c-8.96 0-17.493 4.693-22.187 12.8s-4.693 17.493 0 25.6c4.693 8.107 13.227 12.8 22.187 12.8 14.080 0 25.6-11.52 25.6-25.6s-11.52-25.6-25.6-25.6zM512 243.2c113.067 0 204.8 91.733 204.8 204.8s-91.733 204.8-204.8 204.8-204.8-91.733-204.8-204.8 91.733-204.8 204.8-204.8zM512 192c-141.227 0-256 114.773-256 256s114.773 256 256 256 256-114.773 256-256-114.773-256-256-256z" />
<glyph unicode="&#xe91e;" glyph-name="risk_analysis" data-tags="risk_analysis" d="M526.933 624.64c27.733 0 29.44-22.187 29.44-34.987v-2.133l-6.4-161.707c0-12.373-9.813-24.747-19.627-24.747-12.373 0-22.187 11.093-25.6 23.040l-0.427 1.707-6.4 161.707v2.987c0 16.213 4.267 34.133 29.013 34.133v0zM520.96 365.653c11.093 0 21.76-9.387 28.587-20.48-7.253-14.933-12.373-31.147-14.933-47.36-4.267-1.707-8.96-2.56-13.653-2.56-9.387 0-18.347 3.84-25.173 10.24-6.827 6.827-10.24 15.787-10.24 25.173s3.84 18.347 10.24 25.173c6.827 6.4 15.787 9.813 25.173 9.813v0zM698.453 345.173c-55.467 0-97.28-44.8-97.28-100.267s41.813-100.267 97.28-100.267c54.613 0 101.973 43.52 103.253 97.28v2.56c0 54.187-46.507 98.56-100.693 99.84l-2.56 0.853zM527.787 784.64c0-4.267 114.773-85.333 263.253-85.333 11.947 0 26.027-7.253 27.307-18.347v-253.44c0-10.24-4.267-22.187-8.107-34.987-14.080 12.8-21.76 23.040-38.4 30.293 0.427 2.56 0.427 4.693 0.853 6.827v234.24c-119.893 3.84-225.707 54.187-258.56 78.507-65.707-60.587-181.333-73.387-240.213-78.507h-13.227v-223.573c0-80.64 88.747-262.827 192-262.827 12.373 0 36.693 2.56 49.92 7.253 5.547-8.533 12.373-17.067 20.053-24.747 4.693-5.12 9.813-9.813 15.36-14.080-22.613-9.813-56.747-15.36-78.933-15.36-126.72 0-240.213 199.68-243.627 302.080v248.32c0 6.827 0.427 10.667 4.267 14.507 3.413 3.413 6.827 3.84 12.8 3.84h3.84c61.867 0 209.493 16.213 263.253 81.493 7.68 8.107 20.053 12.373 28.16 3.84v0zM801.707 346.88c47.787-48.64 57.6-119.467 17.493-174.507 0.853-0.427 2.133-1.28 2.987-1.707l27.307-26.88c5.547-4.693 1.707-17.493-2.987-22.613-2.56-2.56-10.667-8.533-14.080-8.533s-6.4 1.28-8.533 3.413l-28.16 25.6c-0.853 0.853-1.28 1.28-2.133 2.133-56.32-53.76-141.227-46.933-196.267 8.533-26.027 26.453-40.533 62.293-40.107 99.413s16.213 72.533 43.093 98.133c56.32 53.76 146.773 52.48 201.387-2.987v0z" />
<glyph unicode="&#xe91f;" glyph-name="risk_statistics" data-tags="risk_statistics" d="M672 353.28c-9.387 0-17.067 7.68-17.067 16.64s7.68 16.64 17.067 16.64c9.387 0 17.067-7.68 17.067-16.64s-7.68-16.64-17.067-16.64zM672.427 394.24c-9.387 0-16.64 7.253-16.64 16.64v32.853c0 8.96 7.68 16.64 16.64 16.64 9.387 0 16.64-7.253 16.64-16.64v-32.853c0-9.387-7.253-16.64-16.64-16.64zM590.933 344.747h162.133l-81.067 156.587-81.067-156.587zM761.6 311.893h-179.2c-9.387 0-17.92 4.693-23.040 12.8-5.547 8.96-5.973 20.053-1.28 29.013l89.6 173.227c4.693 9.387 14.080 14.933 24.32 14.933s19.627-5.973 24.32-14.933l89.6-173.227c4.693-9.387 4.267-20.053-1.28-29.013-4.693-8.107-13.653-12.8-23.040-12.8zM488.107 312.32h-150.613c-9.387 0-16.64 6.827-16.64 16.213 0 8.96 7.68 16.213 16.64 16.213h150.613c9.387 0 16.64-6.827 16.64-16.213s-7.253-16.213-16.64-16.213zM488.107 427.093h-150.613c-9.387 0-16.64 7.253-16.64 16.64 0 8.96 7.68 16.64 16.64 16.64h150.613c9.387 0 16.64-7.253 16.64-16.64 0-8.96-7.253-16.64-16.64-16.64zM571.733 541.867h-234.24c-9.387 0-16.64 7.253-16.64 16.64s7.68 16.64 16.64 16.64h234.24c9.387 0 16.64-7.253 16.64-16.64s-7.253-16.64-16.64-16.64zM630.187 192h-351.147c-24.32 0-44.373 17.92-44.373 40.533v430.933c0 22.613 20.053 40.533 44.373 40.533h351.147c24.32 0 44.373-17.92 44.373-40.533v-61.867c0-8.96-7.68-16.64-16.64-16.64-9.387 0-16.64 7.253-16.64 16.64v61.867c0 3.413-4.267 7.68-10.667 7.68h-351.573c-6.4 0-10.667-3.84-10.667-7.68v-431.36c0-3.413 4.267-7.68 10.667-7.68h351.147c6.4 0 10.667 3.84 10.667 7.68v25.6c0 8.96 7.68 16.64 16.64 16.64 9.387 0 16.64-7.253 16.64-16.64v-25.6c0.427-22.187-19.2-40.107-43.947-40.107z" />
<glyph unicode="&#xe920;" glyph-name="rolling_screen" data-tags="rolling_screen" d="M490.667 704h42.667v-512h-42.667v512zM474.027 482.133h-88.747l16.213 57.173c3.84 12.373-8.533 23.467-20.48 18.347l-174.933-74.24c-12.373-5.12-12.373-23.040 0-28.16l174.933-74.24c11.947-5.12 24.32 5.973 20.48 18.347l-16.213 57.173h88.747c3.413 0 6.827 1.28 8.96 3.84 2.133 2.133 3.84 5.547 3.84 8.96 0 6.827-5.547 12.8-12.8 12.8zM549.973 482.133h88.747l-16.213 57.173c-3.413 12.373 8.96 23.467 20.48 18.347l174.933-74.24c12.373-5.12 12.373-23.040 0-28.16l-174.933-74.24c-11.947-5.12-24.32 5.973-20.48 18.347l16.213 57.173h-88.747c-3.413 0-6.827 1.28-8.96 3.84-2.133 2.133-3.84 5.547-3.84 8.96 0 6.827 5.547 12.8 12.8 12.8z" />
<glyph unicode="&#xe921;" glyph-name="search" data-tags="search" d="M655.787 337.067l79.787-79.787-40.107-39.68-79.787 79.787 40.107 39.68zM487.68 337.067c79.787 0 142.080 62.72 142.080 142.080s-62.72 142.080-142.080 142.080-142.080-62.293-142.080-142.080 62.72-142.080 142.080-142.080zM487.68 280.32c-110.933 0-199.253 88.32-199.253 199.253s88.32 198.827 199.253 198.827 199.253-88.32 199.253-199.253-88.32-198.827-199.253-198.827z" />
<glyph unicode="&#xe922;" glyph-name="shape_filter" data-tags="shape_filter" d="M676.693 260.267l-38.4 22.187v98.56l-1.28 3.413c-0.427 0.853-0.853 1.707-1.28 2.56s-1.28 2.133-2.133 3.413l-70.4 79.787h181.333l-65.28-81.92-1.28-2.987c-0.427-1.28-0.853-2.133-0.853-3.413 0-0.853-0.427-2.133-0.427-3.413v-118.187zM692.053 209.92c5.547-1.28 10.667 0 15.36 3.413s6.827 8.533 6.827 14.507v144.64l85.333 107.093c3.413 6.4 3.413 12.373 0 18.773s-8.96 9.387-16.213 9.387h-264.107l-3.413-1.28c-5.973-2.133-9.813-5.973-11.52-12.373-2.133-6.4-0.427-11.947 4.267-17.067l93.44-106.24v-98.987l0.427-2.987c0.427-2.56 1.28-5.12 2.987-7.68 1.707-2.133 3.413-4.267 5.973-5.12l75.947-44.373 2.987-1.28 1.707-0.427zM541.013 283.733c2.56 0 5.12 0.427 7.253 1.28s4.267 2.56 5.973 4.267c2.133 1.707 3.413 3.413 4.267 5.547s1.28 4.693 1.28 7.253c0 2.56-0.427 5.12-1.28 7.253s-2.133 4.267-4.267 5.973c-2.133 1.707-3.84 2.987-5.973 3.84s-4.693 1.28-7.253 1.28h-220.587l49.493 266.667 233.387 100.267 53.76-136.533c0.853-2.133 2.133-4.267 3.413-5.973 1.707-1.707 3.413-3.413 5.973-4.267s4.693-1.707 6.827-2.133 4.693 0 6.827 0.853c2.56 0.853 5.12 2.133 6.827 3.413 1.707 1.707 3.413 3.413 4.267 5.973 1.28 2.133 1.707 4.693 2.133 6.827 0 2.133 0 4.693-0.853 6.827l-61.013 159.573c-1.28 2.133-2.56 3.413-3.84 5.12-1.28 1.28-2.987 2.56-5.12 3.413-2.56 1.28-5.547 1.707-7.68 1.707s-5.12-0.427-7.253-1.707l-261.547-112.213c-1.707-0.853-2.987-1.707-4.267-2.133-0.853-1.28-2.133-2.133-2.56-3.413-1.28-0.853-2.133-2.133-2.56-3.84-0.427-1.28-0.853-2.987-0.853-4.267l-55.893-298.667c-0.853-2.987-0.853-5.973-0.427-8.533s1.707-5.12 3.84-7.253c2.133-2.133 4.267-3.413 6.4-4.693s5.12-1.707 8.107-1.707h243.2z" />
<glyph unicode="&#xe923;" glyph-name="split_screen" data-tags="split_screen" d="M507.733 704h42.667v-512h-42.667v512zM465.067 661.333v42.667h-213.333v-512h213.333v42.667h-170.667v426.667zM763.733 704h-170.667v-42.667h170.667v-426.667h-170.667v-42.667h213.333v512z" />
<glyph unicode="&#xe924;" glyph-name="statistics" data-tags="statistics" d="M264.96 200.96h98.987v325.973c0 5.547-4.267 9.813-9.813 9.813h-78.933c-5.547 0-9.813-4.267-9.813-9.813v-325.973zM235.52 526.933c0 21.76 17.493 39.68 39.68 39.68h78.933c21.76 0 39.68-17.493 39.68-39.253v-355.84h-157.867v355.413zM462.507 200.96h98.56v483.84c0 5.547-4.267 9.813-9.813 9.813h-78.933c-5.547 0-9.813-4.267-9.813-9.813v-483.84zM433.067 685.227c0 21.76 17.493 39.253 39.253 39.68h79.36c21.76 0 39.253-17.493 39.253-39.253v-513.707h-157.867v513.28zM759.040 428.373c0 5.547-4.267 9.813-9.813 9.813h-79.36c-5.547 0-9.813-4.267-9.813-9.813v-226.987h98.987v226.987zM630.613 171.52v256.853c0 21.76 17.493 39.68 39.68 39.68h78.933c21.76 0 39.68-17.493 39.68-39.68v-256.853h-158.293z" />
<glyph unicode="&#xe925;" glyph-name="time_change" data-tags="time_change" d="M551.253 659.627v-62.293h-37.547v62.293h37.547zM744.107 472.747v-37.547h-62.293v37.547h62.293zM383.147 472.747v-37.547h-62.293v37.547h62.293zM532.48 578.56c9.813 0 17.493-7.253 18.773-17.067v-126.293c0-14.507-15.787-23.467-28.16-16.213l-1.28 0.853-87.040 62.293c-8.107 5.973-10.24 17.067-4.693 25.173 5.547 8.533 16.64 11.093 25.173 5.973l1.707-0.853 57.6-40.96v88.32c0 9.813 7.253 17.493 17.067 18.773h0.853zM551.253 298.667v-62.293h-37.547v62.293h37.547zM532.48 665.6c-120.32 0-217.6-97.707-217.6-217.6s97.707-217.6 217.6-217.6 217.6 97.707 217.6 217.6-97.28 217.6-217.6 217.6zM532.48 703.147c140.8 0 255.147-114.347 255.147-255.147s-114.347-255.147-255.147-255.147-255.147 114.347-255.147 255.147 114.347 255.147 255.147 255.147z" />
<glyph unicode="&#xe926;" glyph-name="time_choose" data-tags="time_choose" d="M512 758.187c-171.52 0-310.187-139.093-310.187-310.187s139.093-310.187 310.187-310.187c10.667 0 20.907 0.427 31.147 1.707v32c-5.12-0.427-10.24-1.28-15.36-1.707v76.373c0 8.533-6.827 15.36-15.36 15.36s-15.36-6.827-15.36-15.36v-76.373c-140.8 7.68-255.573 121.173-262.827 262.827h76.8c8.533 0 15.36 6.827 15.36 15.36s-6.827 15.36-15.36 15.36h-77.227c8.533 140.373 122.88 254.72 262.827 262.827v-76.8c0-8.533 6.827-15.36 15.36-15.36s15.36 6.827 15.36 15.36v76.8c139.947-8.107 254.293-122.453 262.827-262.827h-76.373c-8.533 0-15.36-6.827-15.36-15.36s6.827-15.36 15.36-15.36h76.8c-0.853-15.787-2.987-31.573-6.4-46.507h32c4.267 20.053 6.4 40.96 6.4 61.867-0.427 171.52-139.093 310.187-310.613 310.187zM529.493 419.84l129.28 129.28c5.973 5.973 5.973 15.787 0 21.76s-15.787 5.973-21.76 0l-129.28-129.28-85.333 85.333c-5.973 5.973-15.787 5.973-21.76 0s-5.973-15.787 0-21.76l84.907-84.907-24.32-24.32c-5.973-5.973-5.973-15.787 0-21.76s15.787-5.973 21.76 0l24.32 24.32 24.747-24.747c5.973-5.973 15.787-5.973 21.76 0s5.973 15.787 0 21.76l-24.32 24.32zM791.467 168.533h-186.027c-8.533 0-15.36-6.827-15.36-15.36s6.827-15.36 15.36-15.36h186.027c8.533 0 15.36 6.827 15.36 15.36s-6.827 15.36-15.36 15.36zM791.467 261.973h-186.027c-8.533 0-15.36-6.827-15.36-15.36s6.827-15.36 15.36-15.36h186.027c8.533 0 15.36 6.827 15.36 15.36s-6.827 15.36-15.36 15.36zM791.467 354.987h-186.027c-8.533 0-15.36-6.827-15.36-15.36s6.827-15.36 15.36-15.36h186.027c8.533 0 15.36 6.827 15.36 15.36s-6.827 15.36-15.36 15.36z" />
<glyph unicode="&#xe927;" glyph-name="username" data-tags="username" d="M591.36 376.32l0.427 11.093c52.907 37.12 78.507 101.973 78.507 198.4 0 93.013-58.027 148.48-155.733 148.48h-5.12c-97.28 0-155.733-55.467-155.733-148.48 0-96 26.027-161.28 79.36-198.4v-11.093c-88.747-11.947-177.92-47.36-177.92-101.12 0-75.52 86.187-113.92 256.853-113.92s256.853 38.4 256.853 113.92c0 54.187-88.747 89.173-177.493 101.12z" />
<glyph unicode="&#xe928;" glyph-name="close" data-tags="close" d="M632.747 375.467c13.227-13.227 13.227-34.987 0-48.64-13.227-13.227-34.987-13.227-48.64 0l-72.533 72.533-72.533-72.533c-13.227-13.227-34.987-13.227-48.64 0s-13.227 34.987 0 48.64l72.533 72.533-72.533 72.533c-13.227 13.227-13.227 34.987 0 48.64 13.227 13.227 34.987 13.227 48.64 0l72.533-72.533 72.533 72.533c13.227 13.227 34.987 13.227 48.64 0 13.227-13.227 13.227-34.987 0-48.64l-72.533-72.533 72.533-72.533zM512 721.067c-150.613 0-273.067-122.453-273.067-273.067s122.453-273.067 273.067-273.067 273.067 122.453 273.067 273.067-122.453 273.067-273.067 273.067z" />
<glyph unicode="&#xe929;" glyph-name="triangle_down" data-tags="triangle_down" d="M695.040 539.307l-183.040-182.613-183.040 182.613z" />
<glyph unicode="&#xe92a;" glyph-name="triangle_left" data-tags="triangle_left" d="M603.307 631.040l-182.613-183.040 182.613-183.040z" />
<glyph unicode="&#xe92b;" glyph-name="triangle_right" data-tags="triangle_right" d="M420.693 631.040l182.613-183.040-182.613-183.040z" />
<glyph unicode="&#xe92c;" glyph-name="triangle_up" data-tags="triangle_up" d="M695.040 356.693l-183.040 182.613-183.040-182.613z" />
<glyph unicode="&#xe92d;" glyph-name="more" data-tags="more" d="M576 661.333c0-35.346-28.654-64-64-64s-64 28.654-64 64c0 35.346 28.654 64 64 64s64-28.654 64-64zM576 448c0-35.346-28.654-64-64-64s-64 28.654-64 64c0 35.346 28.654 64 64 64s64-28.654 64-64zM576 234.667c0-35.346-28.654-64-64-64s-64 28.654-64 64c0 35.346 28.654 64 64 64s64-28.654 64-64z" />
<glyph unicode="&#xe92e;" glyph-name="dd" data-tags="dd" d="M661.333 345.6h-51.2v213.333h51.2c59.733 0 106.667-46.933 106.667-106.667s-46.933-106.667-106.667-106.667zM661.333 226.133c123.733 0 226.133 98.133 226.133 221.867s-102.4 221.867-221.867 221.867h-166.4v-448h162.133zM268.8 494.933c12.8 12.8 21.333 29.867 21.333 46.933 0 21.333-21.333 51.2-51.2 51.2s-51.2-21.333-51.2-51.2h-102.4c0 76.8 59.733 149.333 153.6 149.333 85.333 0 145.067-76.8 145.067-149.333 0-46.933-25.6-81.067-25.6-81.067l-85.333-119.467h128v-93.867h-311.467l179.2 247.467z" />
<glyph unicode="&#xe92f;" glyph-name="clear" data-tags="clear" d="M701 396v-195c0-11-9-20-20-20h-338c-11 0-20 9-20 20v195c0 8.3-6.7 15-15 15s-15-6.7-15-15v-205c0-22.1 17.9-40 40-40h358c22.1 0 40 17.9 40 40v205c0 8.3-6.7 15-15 15s-15-6.7-15-15zM393 168v80c0 8.3 6.7 15 15 15s15-6.7 15-15v-80c0-8.3-6.7-15-15-15s-15 6.7-15 15zM497 169v120c0 8.3 6.7 15 15 15s15-6.7 15-15v-120c0-8.3-6.7-15-15-15s-15 6.7-15 15zM601 169v160c0 8.3 6.7 15 15 15s15-6.7 15-15v-160c0-8.3-6.7-15-15-15s-15 6.7-15 15zM514.1 765c-32.9-0.5-59.1-28-59.1-60.9v-211h30v211.2c0 16.3 12.8 30.2 29.1 30.7 16.9 0.5 30.9-13.2 30.9-30v-212h30v212c0 33.4-27.4 60.5-60.9 60zM731 492.5c5.5 0 10-4.5 10-10v-48c0-5.5-4.5-10-10-10h-438c-5.5 0-10 4.5-10 10v48c0 5.5 4.5 10 10 10h438zM731 522.5h-438c-22.1 0-40-17.9-40-40v-48c0-22.1 17.9-40 40-40h438c22.1 0 40 17.9 40 40v48c0 22.1-17.9 40-40 40z" />
<glyph unicode="&#xe930;" glyph-name="ecomoic_data" data-tags="ecomoic_data" d="M759.467 738.133c4.267 0 8.533 0 12.8-4.267s4.267-8.533 4.267-12.8v-76.8h-51.2v42.667h-413.867v-42.667h-51.2v76.8c0 4.267 0 8.533 4.267 12.8s8.533 4.267 12.8 4.267h482.133zM345.6 537.6h-102.4v-38.4h102.4v38.4zM759.467 571.733h-34.133v-38.4h-34.133v-38.4h34.133v-38.4h34.133v38.4h34.133v42.667h-34.133v34.133zM793.6 593.067c4.267 0 8.533 0 12.8-4.267 0-4.267 4.267-12.8 4.267-17.067v-110.933c0-4.267 0-8.533-4.267-12.8s-8.533-4.267-12.8-4.267h-102.4c-8.533 0-17.067 8.533-17.067 17.067v115.2c0 4.267 0 8.533 4.267 12.8s8.533 4.267 12.8 4.267h102.4zM345.6 593.067c4.267 0 8.533 0 12.8-4.267s4.267-12.8 4.267-17.067v-110.933c0-8.533-8.533-17.067-17.067-17.067h-102.4c-4.267 0-8.533 0-12.8 4.267s-4.267 8.533-4.267 12.8v110.933c0 4.267 0 8.533 4.267 12.8s8.533 4.267 12.8 4.267l102.4 4.267zM618.667 482.133v-221.867h-51.2v221.867c0 0 51.2 0 51.2 0zM533.333 388.267v-128h-51.2v128h51.2zM448 349.867v-93.867h-51.2v93.867h51.2zM311.467 384v-170.667h413.867v170.667h51.2v-226.133h-516.267v226.133h51.2z" />
<glyph unicode="&#xe931;" glyph-name="flood_data" data-tags="flood_data" d="M337.067 354.133l8.533-4.267v256h362.667v-260.267l8.533 4.267c12.8 4.267 21.333 4.267 38.4 4.267h8.533v307.2h-81.067v64h-307.2v-64h-81.067v-307.2h8.533c12.8 0 21.333 4.267 34.133 0zM430.933 669.867h196.267v-8.533h-196.267v8.533zM605.867 354.133c17.067 0 29.867-4.267 42.667-12.8l8.533-8.533v162.133h-59.733v-140.8h8.533zM405.333 332.8l8.533 4.267c12.8 8.533 25.6 12.8 38.4 17.067h4.267v140.8h-59.733v-162.133h8.533zM499.2 341.333c4.267 0 4.267-4.267 8.533-4.267l25.6-17.067 25.6 17.067v179.2h-59.733v-174.933zM827.733 213.333c0 8.533-4.267 12.8-12.8 17.067l-21.333 17.067c-25.6 17.067-59.733 17.067-85.333 0l-21.333-17.067c-4.267-4.267-12.8-4.267-17.067 0l-21.333 17.067c-25.6 17.067-59.733 17.067-85.333 0l-21.333-17.067c-4.267-4.267-12.8-4.267-17.067 0l-21.333 17.067c-25.6 17.067-59.733 17.067-85.333 0l-21.333-17.067c-4.267-4.267-12.8-4.267-17.067 0l-21.333 17.067c-25.6 17.067-59.733 17.067-85.333 0l-29.867-21.333c-12.8-8.533-12.8-25.6-4.267-38.4s25.6-12.8 38.4-4.267l29.867 21.333c4.267 4.267 12.8 4.267 17.067 0l21.333-17.067c25.6-17.067 59.733-17.067 85.333 0l21.333 17.067c4.267 4.267 12.8 4.267 17.067 0l21.333-17.067c17.067-12.8 42.667-17.067 64-12.8 8.533 4.267 17.067 4.267 21.333 12.8l21.333 17.067c4.267 4.267 12.8 4.267 17.067 0l21.333-17.067c25.6-17.067 59.733-17.067 85.333 0l21.333 17.067c4.267 4.267 12.8 4.267 17.067 0l21.333-17.067c0 0 0 0 0 0 8.533-8.533 21.333-8.533 29.867 0 12.8 0 17.067 12.8 17.067 25.6v0zM533.333 256c-12.8 0-29.867 4.267-38.4 12.8l-25.6 17.067c-8.533 4.267-17.067 4.267-25.6 0l-21.333-17.067c-25.6-17.067-55.467-17.067-81.067 0l-21.333 17.067c-8.533 4.267-17.067 4.267-25.6 0l-29.867-21.333c-8.533-8.533-25.6-4.267-29.867 4.267-8.533 8.533-4.267 25.6 4.267 29.867l29.867 21.333c25.6 17.067 55.467 17.067 81.067 0l21.333-17.067c8.533-4.267 17.067-4.267 25.6 0l21.333 17.067c25.6 17.067 55.467 17.067 81.067 0l21.333-17.067c8.533-4.267 17.067-4.267 25.6 0l21.333 17.067c25.6 17.067 55.467 17.067 81.067 0l21.333-17.067c8.533-4.267 17.067-4.267 25.6 0l21.333 17.067c25.6 17.067 55.467 17.067 81.067 0l21.333-17.067c8.533-8.533 12.8-21.333 4.267-29.867s-21.333-12.8-29.867-4.267l-21.333 17.067c-8.533 4.267-17.067 4.267-25.6 0l-21.333-17.067c-25.6-17.067-55.467-17.067-81.067 0l-21.333 17.067c-8.533 4.267-17.067 4.267-25.6 0l-21.333-17.067c-12.8-8.533-29.867-12.8-42.667-12.8v0z" />
</font>
</defs>
</svg>
